<?xml version="1.0" encoding="UTF-8"?>
<!-- Generator: https://ezgif.com/png-to-svg -->
<svg version="1.1" xmlns="http://www.w3.org/2000/svg" viewBox="0 0 1410 385">
<path d="M0 0 C463.98 0 927.96 0 1406 0 C1406 28.71 1406 57.42 1406 87 C1346.6 87.33 1287.2 87.66 1226 88 C1223.36 82.72 1220.72 77.44 1218 72 C1212.28 66.76 1212.28 66.76 1205.95 66.57 C1202.6 67.31 1200.46 68.99 1197.81 71.12 C1197.26 71.56 1196.72 72 1196.15 72.46 C1191.22 76.54 1186.94 81.18 1182.68 85.95 C1179.54 89.44 1176.38 92.46 1172.62 95.31 C1163.09 102.6 1156.8 112.58 1154.95 124.51 C1152.73 141.99 1153.16 159.52 1156.56 176.77 C1157.76 183.03 1158.44 189.07 1158.5 195.44 C1158.53 196.56 1158.53 196.56 1158.55 197.71 C1158.49 203.85 1156.56 208.87 1152.66 213.64 C1149.88 216.33 1148.25 217 1144.38 217.06 C1140.68 215.9 1139.26 215.1 1137 212 C1134.94 207.07 1134.69 202.75 1134.75 197.5 C1134.76 196.71 1134.76 195.91 1134.77 195.09 C1134.91 186.81 1135.86 178.73 1137.8 170.67 C1139.97 161.19 1140.33 151.88 1140.38 142.19 C1140.39 141.19 1140.39 141.19 1140.4 140.17 C1140.5 129.08 1139.19 119.55 1134.06 109.62 C1133.34 108.19 1133.34 108.19 1132.6 106.73 C1127.43 97.91 1118.84 91.3 1108.99 88.41 C1097.59 86.06 1085.47 90.94 1076 97 C1071.34 100.65 1067.16 104.8 1063 109 C1062 109.97 1062 109.97 1060.98 110.96 C1049.83 122.55 1043.95 137.71 1040 153 C1039.66 154.2 1039.32 155.4 1038.97 156.63 C1033.88 178 1035.69 203.21 1041.76 224.09 C1047.65 244.52 1047.65 244.52 1047.62 255.12 C1047.62 255.91 1047.62 256.7 1047.62 257.51 C1047.36 264.85 1045.31 271.69 1040 277 C1035.77 280.21 1033.26 281.33 1027.94 280.94 C1022.72 280.11 1018.73 279.21 1015.34 274.87 C1009 265.54 1008.64 255.92 1010.33 244.81 C1011.16 240.82 1012.28 236.91 1013.43 233 C1023.36 198.37 1024.26 161.1 1007.81 128.44 C997.38 109.76 979.74 95.52 959.42 88.84 C948.44 86.13 938.56 88.29 928.81 93.69 C920.08 99.26 913.47 108.11 910.36 118.04 C908.9 125.98 910.35 132.93 912.5 140.56 C917.01 156.68 917.01 156.68 913.25 163.94 C910.74 167.35 908.9 169.65 904.63 170.43 C898.9 170.44 895.48 169.93 891 166 C887.39 161.97 887.46 158.85 887.56 153.6 C888.07 149.41 889.2 145.69 890.5 141.69 C893.8 131.43 895.3 120.52 890.52 110.41 C882.03 96.93 870.65 90.42 855.54 86.98 C833.6 82.68 813.27 84.4 794 96 C789.31 99.24 784.93 102.64 781.38 107.12 C775.23 114.56 767.23 117.92 758.42 121.3 C744.71 127.01 738.26 140.65 732.41 153.55 C724.09 173.89 721.29 196.31 719 218 C718.9 218.87 718.8 219.73 718.7 220.63 C714.89 255.63 717.46 287.53 725.86 321.49 C734.78 357.92 734.78 357.92 727.56 369.91 C723.74 375.02 720.21 379.05 714 381 C705.6 381.89 698.47 381.16 691.45 376.2 C685.93 371.24 684.08 364.53 683.51 357.28 C682.97 344.29 685.46 332.43 689 320 C694.99 298.93 697.68 278.52 697.38 256.62 C697.36 254.45 697.34 252.28 697.32 250.1 C696.99 217.12 694.43 182.56 684 151 C683.75 150.23 683.49 149.46 683.23 148.67 C678.5 134.71 671.77 121.31 659 113.06 C655.24 111.73 652.96 111.38 649 112 C646.83 113.38 644.89 114.91 642.9 116.53 C638.46 119.96 633.56 120.47 628.11 120.3 C624.65 119.81 623.26 118.64 621 116 C619.41 113.09 618.2 110.09 617 107 C616.47 105.7 616.47 105.7 615.93 104.37 C614.58 101.02 613.24 97.66 611.99 94.27 C610.73 91.38 609.88 91.17 607 90 C605.89 89.32 604.77 88.64 603.62 87.94 C595.39 83.27 584.64 84.18 575.69 86.25 C565.86 89.05 561.1 92.93 556 102 C554.22 106.29 553.84 109.34 554.38 113.94 C554.84 118.94 555.19 123.91 555.31 128.94 C555.37 130.75 555.37 130.75 555.43 132.59 C554.91 136.74 553.65 138.81 551 142 C546.79 144.93 541.93 144.62 537 144 C533.22 142.15 531.69 139.89 530.06 136.12 C528.16 129.72 529.89 123.44 531 117 C531.96 110.02 529.86 104.75 526 99 C519.89 92.03 511.41 87.45 502.12 86.8 C490.18 86.62 478.62 89.33 469.45 97.45 C462.43 104.96 459.69 112.94 459 123 C458.95 123.76 458.89 124.52 458.84 125.31 C458.54 133.6 460.56 141.49 462.64 149.47 C464.94 158.59 465.4 168.45 461 177 C458.25 181.02 455.59 184.16 451 186 C445.67 186.85 441.1 186.31 436.57 183.33 C431.7 179.2 429.18 174.25 428 168 C427.63 160.49 428.88 153.77 430.44 146.44 C433.78 129.78 436.95 113.44 427.57 98.04 C422.97 92.05 417.21 88.09 409.69 87.02 C403.1 86.97 397.09 88.37 391.88 92.44 C388.03 97.69 387.69 101.35 387.75 107.75 C387.74 108.52 387.73 109.3 387.73 110.09 C387.74 114.67 388.32 118.61 389.54 123 C390.35 126.53 390.37 130.02 390.38 133.62 C390.4 134.35 390.42 135.07 390.45 135.82 C390.48 141.01 389.35 143.85 386 148 C383.63 150.37 382.94 150.34 379.69 150.44 C375.91 150.36 375.15 150.11 372 147.69 C368.77 143.34 368.81 139.53 368.81 134.31 C368.81 133.58 368.81 132.86 368.81 132.11 C368.85 127.82 369.28 124.19 370.54 120.13 C371.83 114.15 372.36 106.71 369.59 101.19 C367.84 98.78 366.64 97.39 364 96 C357.22 95.23 352 97.24 346.69 101.38 C323.63 122.35 320.53 156.53 319 186 C318.28 206.37 320.02 225.59 323.68 245.59 C325.31 254.81 326.28 263.36 322 272 C319.81 274.57 318.4 275.73 315.07 276.37 C311.49 276.59 309.39 276.21 306.19 274.5 C300.54 268.04 300.51 261.16 301 253 C301.65 247.93 302.53 242.91 303.44 237.88 C305.6 225.64 307.18 214.12 307.12 201.69 C307.12 200.54 307.12 199.39 307.11 198.21 C307.09 194.8 307.05 191.4 307 188 C306.98 186.65 306.98 186.65 306.96 185.28 C306.42 157.15 303.17 126.74 283 105.5 C273.61 96.48 261.51 85.22 247.94 84.5 C242.99 84.75 238.86 85.79 235 89 C233.21 91.53 232.01 94.08 231 97 C230.79 97.59 230.57 98.18 230.36 98.79 C229.83 102.05 230.31 105.14 230.75 108.38 C230.84 109.08 230.93 109.79 231.02 110.53 C231.64 115.07 232.54 119.47 233.62 123.94 C234.83 129.32 235.35 134.45 235.44 139.94 C235.46 140.64 235.48 141.33 235.5 142.05 C235.48 148.53 233.06 152.39 229.12 157.38 C226.32 159.52 224.52 159.86 221 160 C216.5 159.29 214.47 158.46 211.19 155.25 C206.41 148.16 205.9 141.09 207.4 132.77 C207.92 130.2 208.46 127.63 209 125.06 C210.53 117.68 211.39 110.61 211.38 103.06 C211.38 101.83 211.38 101.83 211.38 100.57 C211.29 95.97 210.57 92.38 209 88 C201.56 87.97 194.13 87.95 186.69 87.94 C185.55 87.94 184.41 87.93 183.24 87.93 C168.99 87.91 154.73 88 140.48 88.26 C139.8 88.27 139.13 88.28 138.43 88.29 C131.13 88.43 123.82 88.57 116.52 88.73 C115.3 88.76 114.07 88.78 112.81 88.81 C110.5 88.85 108.2 88.9 105.89 88.96 C104.37 88.99 104.37 88.99 102.82 89.02 C101.93 89.04 101.04 89.06 100.13 89.08 C98 89 98 89 96 88 C92.98 87.88 89.98 87.81 86.96 87.79 C86.02 87.78 85.09 87.77 84.12 87.76 C81.02 87.73 77.91 87.71 74.8 87.68 C72.66 87.66 70.51 87.64 68.36 87.62 C62.69 87.57 57.03 87.52 51.36 87.47 C44.57 87.41 37.77 87.34 30.98 87.28 C20.65 87.18 10.33 87.09 0 87 C0 58.29 0 29.58 0 0 Z " fill="#FEFEFE" transform="translate(2,0)"/>
</svg>
